<?xml version="1.0" standalone="no"?>
<!DOCTYPE svg PUBLIC "-//W3C//DTD SVG 20010904//EN"
 "http://www.w3.org/TR/2001/REC-SVG-20010904/DTD/svg10.dtd">
<svg version="1.0" xmlns="http://www.w3.org/2000/svg"
 width="512.000000pt" height="512.000000pt" viewBox="0 0 512.000000 512.000000"
 preserveAspectRatio="xMidYMid meet">

<g transform="translate(0.000000,512.000000) scale(0.100000,-0.100000)"
fill="#54596e" stroke="none">
<path d="M1643 4801 c-381 -174 -706 -327 -723 -339 -16 -12 -37 -36 -45 -52
-50 -96 -628 -2220 -741 -2720 -40 -178 -44 -207 -44 -330 0 -122 3 -140 25
-187 27 -60 51 -77 170 -124 134 -54 168 -74 363 -218 639 -471 978 -629 1479
-687 108 -13 200 -15 418 -11 346 6 574 32 902 103 l123 27 87 -41 c185 -85
450 -161 688 -198 90 -14 177 -18 350 -18 265 -1 298 6 321 60 15 37 11 58
-20 92 -20 23 -22 23 -196 16 -389 -14 -779 64 -1112 223 l-97 46 -143 -32
c-324 -71 -567 -101 -890 -108 -714 -16 -1046 106 -1798 657 -226 166 -251
181 -377 230 -130 52 -123 42 -123 175 0 129 5 158 106 559 146 585 519 1958
630 2322 l25 82 217 100 c426 196 1077 491 1088 494 14 3 422 -523 438 -563 7
-21 6 -33 -8 -54 -30 -46 -425 -484 -447 -496 -33 -17 -65 -3 -137 64 -144
134 -165 142 -229 83 -52 -46 -126 -67 -257 -72 -96 -3 -112 -6 -133 -26 -36
-34 -31 -81 15 -142 21 -28 42 -58 47 -66 5 -8 28 -330 51 -715 l41 -700 -25
-80 c-33 -108 -57 -153 -103 -196 -39 -37 -49 -71 -33 -114 10 -25 62 -48 98
-41 70 13 159 147 202 305 16 55 24 68 64 97 68 51 255 141 340 164 173 47
353 47 530 -1 97 -26 300 -126 370 -182 111 -88 224 -253 254 -372 18 -68 43
-95 90 -95 43 0 74 24 82 64 13 73 -62 246 -161 370 -30 38 -55 75 -55 82 0
19 166 182 245 242 86 64 224 133 325 162 106 31 295 38 412 16 167 -32 354
-109 504 -210 79 -53 119 -59 151 -24 55 62 35 105 -88 185 -154 99 -278 153
-456 200 -99 25 -123 28 -283 28 -160 0 -183 -3 -275 -28 -210 -58 -393 -171
-572 -353 l-102 -104 -88 49 c-106 60 -209 102 -340 138 -91 26 -112 28 -288
28 -177 0 -197 -2 -290 -28 -55 -15 -154 -54 -220 -86 -66 -33 -122 -57 -124
-55 -2 1 -21 294 -42 650 -21 356 -40 652 -43 659 -3 9 10 15 40 20 53 8 151
40 170 56 11 9 28 -2 79 -49 86 -79 124 -96 205 -96 80 0 125 22 196 96 127
131 418 467 437 503 31 60 29 157 -4 215 -36 64 -487 648 -509 660 -10 6 -29
10 -42 9 -13 0 -335 -143 -715 -318z"/>
<path d="M3683 4765 c-170 -46 -294 -181 -324 -354 -15 -82 -1 -170 41 -259
28 -60 64 -99 363 -399 325 -326 333 -333 372 -333 39 0 46 7 366 328 182 183
337 347 351 372 69 121 77 281 21 403 -127 270 -459 338 -690 141 l-54 -46
-48 45 c-108 101 -259 139 -398 102z m198 -174 c35 -14 76 -44 134 -100 111
-106 118 -107 226 -6 44 41 98 84 121 96 131 67 299 5 358 -133 27 -62 25
-160 -5 -223 -19 -41 -559 -595 -580 -595 -20 0 -562 554 -583 595 -72 144 -1
315 154 370 55 20 115 18 175 -4z"/>
<path d="M1161 1364 c-35 -15 -55 -55 -46 -94 10 -38 103 -155 202 -251 242
-236 514 -371 873 -435 182 -33 548 -19 722 27 68 18 92 96 43 144 -29 30 -29
30 -178 5 -434 -71 -822 2 -1144 216 -104 69 -257 213 -332 313 -62 82 -89 97
-140 75z"/>
<path d="M4375 1265 c-29 -28 -34 -89 -11 -133 38 -73 152 -151 291 -199 150
-51 295 -74 335 -53 30 16 42 66 26 105 -16 37 -14 36 -181 75 -182 42 -293
100 -321 165 -27 66 -94 85 -139 40z"/>
</g>
</svg>
