<?xml version="1.0" standalone="no"?>
<!DOCTYPE svg PUBLIC "-//W3C//DTD SVG 20010904//EN"
 "http://www.w3.org/TR/2001/REC-SVG-20010904/DTD/svg10.dtd">
<svg version="1.0" xmlns="http://www.w3.org/2000/svg"
 width="512.000000pt" height="512.000000pt" viewBox="0 0 512.000000 512.000000"
 preserveAspectRatio="xMidYMid meet">

<g transform="translate(0.000000,512.000000) scale(0.100000,-0.100000)"
fill="#000000" stroke="none">
<path d="M1827 4950 c-58 -15 -135 -57 -183 -102 -41 -38 -114 -162 -114 -194
0 -11 -29 -14 -141 -14 -80 0 -159 -5 -181 -12 -47 -14 -121 -76 -138 -117
l-12 -29 -216 -4 -217 -3 -67 -32 c-93 -44 -151 -100 -196 -191 l-37 -76 0
-1656 0 -1656 37 -76 c45 -91 103 -147 196 -191 l67 -32 703 -3 702 -3 25 25
c33 33 33 79 0 111 l-24 25 -672 0 c-498 0 -682 3 -713 12 -55 16 -138 99
-154 154 -17 60 -17 3208 0 3268 16 55 99 138 154 154 26 7 108 12 218 12
l176 0 0 -96 c0 -53 5 -115 12 -138 16 -55 99 -138 154 -154 31 -9 215 -12
716 -12 769 0 736 -3 811 80 54 60 67 103 67 224 l0 96 176 0 c110 0 192 -5
218 -12 55 -16 138 -99 154 -154 9 -30 12 -198 12 -633 l0 -592 25 -24 c32
-33 78 -33 111 0 l25 25 -3 623 -3 623 -37 76 c-45 91 -103 147 -196 191 l-67
32 -217 3 -216 4 -12 29 c-17 41 -91 103 -138 117 -22 7 -101 12 -181 12 -112
0 -141 3 -141 14 0 7 -16 45 -35 83 -66 132 -188 212 -333 219 -42 2 -94 -1
-115 -6z m167 -162 c85 -25 166 -136 166 -227 0 -21 9 -41 25 -56 24 -25 26
-25 215 -25 189 0 191 0 215 -25 24 -23 25 -28 25 -175 0 -147 -1 -152 -25
-175 l-24 -25 -671 0 -671 0 -24 25 c-24 23 -25 28 -25 175 0 147 1 152 25
175 24 25 26 25 215 25 189 0 191 0 215 25 16 15 25 35 25 56 0 62 23 113 75
164 70 71 145 90 239 63z"/>
<path d="M825 3575 l-25 -24 0 -271 0 -271 25 -24 24 -25 271 0 271 0 24 25
25 24 0 271 0 271 -25 24 -24 25 -271 0 -271 0 -24 -25z m455 -295 l0 -160
-160 0 -160 0 0 160 0 160 160 0 160 0 0 -160z"/>
<path d="M1705 3575 c-16 -15 -25 -36 -25 -55 0 -19 9 -40 25 -55 l24 -25 631
0 631 0 24 25 c16 15 25 36 25 55 0 19 -9 40 -25 55 l-24 25 -631 0 -631 0
-24 -25z"/>
<path d="M1705 3095 c-16 -15 -25 -36 -25 -55 0 -19 9 -40 25 -55 l24 -25 391
0 391 0 24 25 c16 15 25 36 25 55 0 19 -9 40 -25 55 l-24 25 -391 0 -391 0
-24 -25z"/>
<path d="M3530 2707 c-61 -17 -109 -48 -158 -101 -67 -72 -87 -119 -87 -206 0
-107 20 -137 203 -323 l157 -157 -303 -302 -302 -303 -158 157 c-180 180 -215
202 -323 202 -83 0 -158 -34 -222 -103 -71 -76 -92 -123 -92 -211 0 -85 19
-132 82 -200 l35 -40 -35 -40 c-63 -68 -82 -115 -82 -200 0 -85 19 -132 82
-201 l36 -40 -45 -47 c-76 -78 -94 -135 -64 -205 17 -40 181 -202 219 -216 68
-26 123 -7 199 67 l47 45 40 -36 c69 -63 116 -82 201 -82 85 0 132 19 200 82
l40 35 40 -35 c68 -63 115 -82 200 -82 59 0 84 5 119 24 62 33 133 102 167
163 25 46 29 64 29 128 -1 107 -20 137 -203 323 l-157 157 303 302 302 303
157 -157 c90 -88 177 -166 203 -179 64 -33 176 -33 239 0 62 33 133 102 167
163 25 46 29 64 29 128 0 85 -20 132 -82 200 l-35 40 35 40 c63 68 82 115 82
200 0 85 -19 132 -82 201 l-36 40 45 47 c76 78 94 135 64 205 -17 40 -181 202
-219 216 -68 26 -123 7 -199 -67 l-47 -45 -42 38 c-119 107 -279 107 -398 0
l-41 -37 -41 37 c-77 69 -181 97 -269 72z m614 -646 l491 -491 0 -51 c0 -48
-3 -53 -51 -99 -55 -52 -88 -66 -131 -55 -19 4 -190 168 -518 496 l-490 489 0
49 c0 46 4 54 45 97 55 56 74 65 124 60 37 -4 71 -36 530 -495z m-16 485 c15
-8 135 -123 267 -255 l240 -241 0 -50 c0 -44 -4 -54 -38 -87 l-37 -38 -302
302 -302 302 20 22 c48 55 103 71 152 45z m472 -151 l-40 -40 -62 62 -62 63
39 40 39 40 63 -62 63 -63 -40 -40z m-775 -655 l60 -60 -303 -303 -302 -302
-62 63 -63 62 300 300 c165 165 302 300 305 300 3 0 32 -27 65 -60z m-721
-719 l491 -491 0 -51 c0 -48 -3 -53 -51 -99 -55 -52 -88 -66 -131 -55 -19 4
-190 168 -518 496 l-490 489 0 49 c0 46 4 54 45 97 55 56 74 65 124 60 37 -4
71 -36 530 -495z m-319 -321 l300 -301 -37 -34 c-42 -39 -75 -50 -115 -40 -18
4 -117 95 -278 256 l-250 249 0 49 c0 43 5 55 34 85 19 20 37 36 41 36 3 0
140 -135 305 -300z m-240 -240 l59 -60 -39 -40 -39 -40 -63 62 -63 62 37 38
c20 21 40 38 43 38 3 0 32 -27 65 -60z"/>
<path d="M825 2615 l-25 -24 0 -271 0 -271 25 -24 24 -25 271 0 271 0 24 25
25 24 0 271 0 271 -25 24 -24 25 -271 0 -271 0 -24 -25z m455 -295 l0 -160
-160 0 -160 0 0 160 0 160 160 0 160 0 0 -160z"/>
<path d="M1705 2615 c-16 -15 -25 -36 -25 -55 0 -19 9 -40 25 -55 l24 -25 631
0 631 0 24 25 c16 15 25 36 25 55 0 19 -9 40 -25 55 l-24 25 -631 0 -631 0
-24 -25z"/>
<path d="M1705 2135 c-16 -15 -25 -36 -25 -55 0 -19 9 -40 25 -55 l24 -25 391
0 391 0 24 25 c16 15 25 36 25 55 0 19 -9 40 -25 55 l-24 25 -391 0 -391 0
-24 -25z"/>
<path d="M825 1655 l-25 -24 0 -271 0 -271 25 -24 24 -25 271 0 271 0 24 25
25 24 0 271 0 271 -25 24 -24 25 -271 0 -271 0 -24 -25z m455 -295 l0 -160
-160 0 -160 0 0 160 0 160 160 0 160 0 0 -160z"/>
<path d="M1705 1655 c-16 -15 -25 -36 -25 -55 0 -19 9 -40 25 -55 23 -24 28
-25 175 -25 147 0 152 1 175 25 16 15 25 36 25 55 0 19 -9 40 -25 55 -23 24
-28 25 -175 25 -147 0 -152 -1 -175 -25z"/>
<path d="M1705 1175 c-16 -15 -25 -36 -25 -55 0 -19 9 -40 25 -55 23 -24 28
-25 175 -25 147 0 152 1 175 25 16 15 25 36 25 55 0 19 -9 40 -25 55 -23 24
-28 25 -175 25 -147 0 -152 -1 -175 -25z"/>
</g>
</svg>
